<svg width="207" height="256" viewBox="0 0 207 256" fill="none" xmlns="http://www.w3.org/2000/svg">
<path d="M0 0L5 134.5L10.5 11L196 9.5V131H124.5L125 177.5H186L136.5 170V141H207L205.5 0.5L0 0Z" fill="white"/>
<g filter="url(#filter0_d_939_109)">
<path d="M81.3684 164.856L119.95 126.712L95.2757 158.953L106.491 164.856H81.3684Z" fill="white"/>
<path d="M140.586 45.4293L6 174.846L130.717 45.4293L106.491 20H185V99.4665L161.223 75.8536L54 177.5L161.672 66.3176L178.719 82.665L178.271 27.2655L123.539 27.7196L140.586 45.4293Z" fill="white"/>
<path d="M174.233 69.9504V31.8065L32.5 184L162.12 58.1439L174.233 69.9504Z" fill="white"/>
<path d="M71.0501 82.665L109.632 49.5161L81.3684 82.665L8.24311 150.325L71.0501 82.665Z" fill="white"/>
</g>
<path d="M18.208 244C17.152 244 16.176 243.744 15.28 243.232C14.416 242.72 13.728 242.032 13.216 241.168C12.704 240.272 12.448 239.296 12.448 238.24V236.896H16.336V238.24C16.336 238.752 16.512 239.2 16.864 239.584C17.248 239.936 17.696 240.112 18.208 240.112H41.248C41.76 240.112 42.192 239.936 42.544 239.584C42.928 239.2 43.12 238.752 43.12 238.24V230.512C43.12 230 42.928 229.568 42.544 229.216C42.192 228.864 41.76 228.688 41.248 228.688H18.208C17.152 228.688 16.176 228.432 15.28 227.92C14.416 227.376 13.728 226.672 13.216 225.808C12.704 224.944 12.448 223.984 12.448 222.928V215.2C12.448 214.144 12.704 213.184 13.216 212.32C13.728 211.424 14.416 210.72 15.28 210.208C16.176 209.696 17.152 209.44 18.208 209.44H41.248C42.304 209.44 43.264 209.696 44.128 210.208C45.024 210.72 45.728 211.424 46.24 212.32C46.752 213.184 47.008 214.144 47.008 215.2V216.544H43.12V215.2C43.12 214.688 42.928 214.256 42.544 213.904C42.192 213.52 41.76 213.328 41.248 213.328H18.208C17.696 213.328 17.248 213.52 16.864 213.904C16.512 214.256 16.336 214.688 16.336 215.2V222.928C16.336 223.44 16.512 223.872 16.864 224.224C17.248 224.576 17.696 224.752 18.208 224.752H41.248C42.304 224.752 43.264 225.024 44.128 225.568C45.024 226.08 45.728 226.768 46.24 227.632C46.752 228.496 47.008 229.456 47.008 230.512V238.24C47.008 239.296 46.752 240.272 46.24 241.168C45.728 242.032 45.024 242.72 44.128 243.232C43.264 243.744 42.304 244 41.248 244H18.208ZM52.6367 244V209.44H56.5728V244H52.6367ZM68.1824 244C67.1264 244 66.1504 243.744 65.2544 243.232C64.3904 242.72 63.7024 242.032 63.1904 241.168C62.6784 240.272 62.4224 239.296 62.4224 238.24V215.2C62.4224 214.144 62.6784 213.184 63.1904 212.32C63.7024 211.424 64.3904 210.72 65.2544 210.208C66.1504 209.696 67.1264 209.44 68.1824 209.44H91.2224C92.2784 209.44 93.2384 209.696 94.1024 210.208C94.9984 210.72 95.7024 211.424 96.2144 212.32C96.7264 213.184 96.9824 214.144 96.9824 215.2V216.592H93.0944V215.2C93.0944 214.688 92.9024 214.256 92.5184 213.904C92.1664 213.52 91.7344 213.328 91.2224 213.328H68.1824C67.6704 213.328 67.2224 213.52 66.8384 213.904C66.4864 214.256 66.3104 214.688 66.3104 215.2V238.24C66.3104 238.752 66.4864 239.2 66.8384 239.584C67.2224 239.936 67.6704 240.112 68.1824 240.112H91.2224C91.7344 240.112 92.1664 239.936 92.5184 239.584C92.9024 239.2 93.0944 238.752 93.0944 238.24V229.696H84.5504V225.76H96.9824V238.24C96.9824 239.296 96.7264 240.272 96.2144 241.168C95.7024 242.032 94.9984 242.72 94.1024 243.232C93.2384 243.744 92.2784 244 91.2224 244H68.1824ZM121.274 244L101.258 209.44H105.818L123.53 240.208L141.194 209.44H145.754L125.786 244H121.274ZM150.887 244V209.44H154.823V244H150.887ZM160.816 244V209.44H188.128C189.184 209.44 190.144 209.696 191.008 210.208C191.904 210.72 192.608 211.424 193.12 212.32C193.632 213.184 193.888 214.144 193.888 215.2V222.544C193.888 222.992 193.824 223.44 193.696 223.888C193.6 224.304 193.456 224.704 193.264 225.088C193.968 226.144 194.496 227.056 194.848 227.824C195.2 228.592 195.376 229.376 195.376 230.176V238.24C195.376 239.296 195.12 240.272 194.608 241.168C194.096 242.032 193.392 242.72 192.496 243.232C191.632 243.744 190.672 244 189.616 244H160.816ZM166.576 240.112H189.616C190.128 240.112 190.56 239.936 190.912 239.584C191.296 239.2 191.488 238.752 191.488 238.24V230.176C191.488 229.664 191.296 229.232 190.912 228.88C190.56 228.496 190.128 228.304 189.616 228.304H166.576C166.064 228.304 165.616 228.496 165.232 228.88C164.88 229.232 164.704 229.664 164.704 230.176V238.24C164.704 238.752 164.88 239.2 165.232 239.584C165.616 239.936 166.064 240.112 166.576 240.112ZM166.576 224.416H188.128C188.64 224.416 189.072 224.24 189.424 223.888C189.776 223.504 189.952 223.056 189.952 222.544V215.2C189.952 214.688 189.776 214.256 189.424 213.904C189.072 213.52 188.64 213.328 188.128 213.328H166.576C166.064 213.328 165.616 213.52 165.232 213.904C164.88 214.256 164.704 214.688 164.704 215.2V222.544C164.704 223.056 164.88 223.504 165.232 223.888C165.616 224.24 166.064 224.416 166.576 224.416Z" fill="white"/>
<defs>
<filter id="filter0_d_939_109" x="2" y="20" width="187" height="172" filterUnits="userSpaceOnUse" color-interpolation-filters="sRGB">
<feFlood flood-opacity="0" result="BackgroundImageFix"/>
<feColorMatrix in="SourceAlpha" type="matrix" values="0 0 0 0 0 0 0 0 0 0 0 0 0 0 0 0 0 0 127 0" result="hardAlpha"/>
<feOffset dy="4"/>
<feGaussianBlur stdDeviation="2"/>
<feComposite in2="hardAlpha" operator="out"/>
<feColorMatrix type="matrix" values="0 0 0 0 0 0 0 0 0 0 0 0 0 0 0 0 0 0 0.25 0"/>
<feBlend mode="normal" in2="BackgroundImageFix" result="effect1_dropShadow_939_109"/>
<feBlend mode="normal" in="SourceGraphic" in2="effect1_dropShadow_939_109" result="shape"/>
</filter>
</defs>
</svg>
